<?xml version="1.0" encoding="UTF-8" standalone="no"?>
<!-- Created with Inkscape (http://www.inkscape.org/) -->

<svg
   width="512"
   height="512"
   viewBox="0 0 512 512"
   version="1.1"
   id="svg1"
   xml:space="preserve"
   inkscape:version="1.4 (e7c3feb100, 2024-10-09)"
   sodipodi:docname="zako.optizmism.svg"
   inkscape:export-filename="zako.plain.svg"
   inkscape:export-xdpi="96"
   inkscape:export-ydpi="96"
   xmlns:inkscape="http://www.inkscape.org/namespaces/inkscape"
   xmlns:sodipodi="http://sodipodi.sourceforge.net/DTD/sodipodi-0.dtd"
   xmlns="http://www.w3.org/2000/svg"
   xmlns:svg="http://www.w3.org/2000/svg"><sodipodi:namedview
     id="namedview1"
     pagecolor="#ffffff"
     bordercolor="#999999"
     borderopacity="1"
     inkscape:showpageshadow="2"
     inkscape:pageopacity="0"
     inkscape:pagecheckerboard="0"
     inkscape:deskcolor="#d1d1d1"
     inkscape:document-units="px"
     showguides="false"
     inkscape:zoom="2"
     inkscape:cx="219"
     inkscape:cy="370"
     inkscape:window-width="1280"
     inkscape:window-height="702"
     inkscape:window-x="0"
     inkscape:window-y="0"
     inkscape:window-maximized="1"
     inkscape:current-layer="layer1"
     showgrid="false"><inkscape:page
       x="0"
       y="0"
       width="512"
       height="512"
       id="page2"
       margin="0"
       bleed="0" /></sodipodi:namedview><defs
     id="defs1"><inkscape:path-effect
       effect="simplify"
       id="path-effect79"
       is_visible="true"
       lpeversion="1.3"
       threshold="32.467532"
       steps="1"
       smooth_angles="360"
       helper_size="0"
       simplify_individual_paths="false"
       simplify_just_coalesce="false" /><inkscape:path-effect
       effect="simplify"
       id="path-effect78"
       is_visible="true"
       lpeversion="1.3"
       threshold="32.467532"
       steps="1"
       smooth_angles="360"
       helper_size="0"
       simplify_individual_paths="false"
       simplify_just_coalesce="false" /><inkscape:path-effect
       effect="simplify"
       id="path-effect77"
       is_visible="true"
       lpeversion="1.3"
       threshold="32.467532"
       steps="1"
       smooth_angles="360"
       helper_size="0"
       simplify_individual_paths="false"
       simplify_just_coalesce="false" /><inkscape:path-effect
       effect="simplify"
       id="path-effect76"
       is_visible="true"
       lpeversion="1.3"
       threshold="32.467532"
       steps="1"
       smooth_angles="360"
       helper_size="0"
       simplify_individual_paths="false"
       simplify_just_coalesce="false" /><inkscape:path-effect
       effect="simplify"
       id="path-effect75"
       is_visible="true"
       lpeversion="1.3"
       threshold="32.467532"
       steps="1"
       smooth_angles="360"
       helper_size="0"
       simplify_individual_paths="false"
       simplify_just_coalesce="false" /><inkscape:path-effect
       effect="simplify"
       id="path-effect61"
       is_visible="true"
       lpeversion="1.3"
       threshold="32.467532"
       steps="1"
       smooth_angles="360"
       helper_size="0"
       simplify_individual_paths="false"
       simplify_just_coalesce="false" /><inkscape:path-effect
       effect="simplify"
       id="path-effect42"
       is_visible="true"
       lpeversion="1.3"
       threshold="32.467532"
       steps="1"
       smooth_angles="360"
       helper_size="0"
       simplify_individual_paths="false"
       simplify_just_coalesce="false" /></defs><g
     inkscape:label="main"
     inkscape:groupmode="layer"
     id="layer1"><path
       style="display:inline;opacity:1;fill:#fff9f6;fill-opacity:1;stroke:#4c4f59;stroke-width:6.5;stroke-linecap:round;stroke-miterlimit:1.3;stroke-dasharray:none;stroke-opacity:1;paint-order:fill markers stroke"
       d="m 164.23888,424.64081 -31.07097,26.05282 c 0,0 -5.19317,18.17613 25.96589,28.93342 31.15907,10.7573 213.29123,1.48377 213.29123,1.48377 0,0 52.30272,11.87012 80.86519,-37.09413 -0.37094,0.74188 -8.90259,19.28895 -8.90259,19.28895 l 1.48377,19.28894 c 0,0 57.73516,-9.41425 30.45647,-148.95524 4.19672,-9.44262 8.39344,-15.21311 8.39344,-15.21311 l -3.14754,-21.77049 c 0,0 5.65758,-40.33533 7.88323,-45.52851 2.22564,-5.19317 9.64447,-11.12823 9.64447,-11.12823 0,0 -2.78206,-20.40177 -6.67694,-26.15136 -0.74189,-3.33847 6.86241,-35.05395 2.04017,-58.05231 -7.04788,-11.87012 -4.82223,-11.87012 -18.918,-25.59495 0,0.37094 8.90259,-44.88389 -0.74188,-73.446367 -2.96753,0 -32.27189,-10.757296 -96.81567,23.740241 -0.37094,1.112824 -26.33683,-30.046242 -153.56969,-15.950474 -0.74188,0 -43.40012,-37.836009 -66.76942,-40.432598 -1.11283,-0.370941 -22.62742,-4.080354 -25.22401,48.964247 0,1.112824 -44.14201,15.950474 -56.01213,64.914721 -11.87012,48.96425 -11.128238,80.86519 -11.128238,80.86519 0,0 -18.904912,27.6632 -9.798121,25.03308 5.346826,-1.54421 4.975885,23.56023 4.975885,23.56023 l -2.225648,39.31977 c 0,0 -14.466709,35.23942 -14.83765,59.72155 -0.370942,24.48212 -0.741883,34.12659 4.822236,48.5933 5.564119,14.46671 20.772711,46.7386 42.658245,63.06002 8.902591,0.37094 18.918001,1.8547 18.918001,1.8547 l 3.70942,-20.77271 c 0,0 18.918,15.95048 32.27189,14.83765 13.35388,-1.11282 -0.74189,-0.74188 -0.74189,-0.74188 l -13.72482,-17.80518 z"
       id="path2"
       sodipodi:nodetypes="ccscccccccscccccccccscsccsscccsccc"
       inkscape:label="整个人的边框" /><path
       id="path91"
       style="opacity:1;fill:#93d4fa;fill-opacity:1;stroke:#4c4f59;stroke-width:6.9;stroke-linecap:round;stroke-linejoin:round;stroke-miterlimit:1.3;stroke-dasharray:none;stroke-opacity:1;paint-order:fill markers stroke"
       d="m 133.91016,110.16992 -69.738285,47.48047 18.263976,30.75433 -31.617492,55.67536 28.5625,17.0625 14.837891,-1.48438 2.226562,-55.64062 2.577791,-4.39109 18.193697,-21.94485 23.74023,-49.70703 z"
       sodipodi:nodetypes="ccccccccccc" /><path
       style="display:inline;opacity:1;fill:#ace0fe;fill-opacity:1;stroke:#4c4f59;stroke-width:6.54357;stroke-linecap:round;stroke-linejoin:round;stroke-miterlimit:1.3;stroke-dasharray:none;stroke-opacity:1;paint-order:fill markers stroke"
       d="m 217.01397,405.82758 c 0,0 7.41728,-25.94462 41.16595,-27.07265 33.74866,-1.12802 53.77534,4.1361 53.77534,4.1361 0,0 11.12594,6.39215 17.80149,14.66435 6.67557,8.2722 28.92743,40.60895 41.53682,48.88115 12.60939,8.27219 15.20545,15.41636 15.20545,15.41636 l -1.85433,11.28027 c 0,0 -14.83458,10.15224 -30.78175,11.65627 -15.94717,1.50404 -147.60404,0 -147.60404,0 l -30.04002,-3.00807"
       id="path71"
       inkscape:label="衣服底色" /><path
       style="fill:#ffffff;fill-opacity:1;stroke-width:1.2;stroke-linecap:round;stroke-linejoin:round;stroke-miterlimit:1.3;paint-order:fill markers stroke"
       d="m 363.54127,444.68178 c 0,0 -6.89429,4.06586 -4.86135,6.8059 2.03293,2.74004 5.92201,3.44715 5.92201,3.44715 0,0 4.5962,0.26516 5.12653,-3.53554 0.53033,-3.8007 -3.00521,-6.8059 -3.00521,-6.8059"
       id="path60" /><path
       style="fill:#ffffff;fill-opacity:1;stroke-width:1.2;stroke-linecap:round;stroke-linejoin:round;stroke-miterlimit:1.3;paint-order:fill markers stroke"
       d="m 349.67678,459.82583 c 0,0 4.5,-7.25 7,-5.5 2.5,1.75 -4.25,7.25 -4.25,7.25"
       id="path59" /><path
       id="path73-8"
       style="fill:#ffffff;stroke-width:8.7;stroke-linecap:round;stroke-linejoin:round;stroke-miterlimit:1.3;paint-order:fill markers stroke"
       d="m 228.96985,465.10941 a 8.0341015,5.6995392 0 0 1 -8.0341,5.69953 8.0341015,5.6995392 0 0 1 -8.03411,-5.69953 8.0341015,5.6995392 0 0 1 8.03411,-5.69954 8.0341015,5.6995392 0 0 1 8.0341,5.69954 z" /><path
       style="opacity:1;fill:none;fill-opacity:1;stroke:#6c9cb2;stroke-width:3;stroke-linecap:round;stroke-linejoin:round;stroke-miterlimit:1.3;stroke-dasharray:none;stroke-opacity:1;paint-order:fill markers stroke"
       d="m 220.85246,408.91803 c -0.22678,0.7374 0.77024,1.47887 0.20184,0.3709 -0.55918,-1.08999 0.45864,1.0858 0.58075,1.39596 2.10089,5.33666 1.96407,11.16153 3.60742,16.6426 0.30205,1.00744 0.58829,2.039 0.5936,3.09874"
       id="path75"
       inkscape:path-effect="#path-effect75"
       inkscape:original-d="m 220.85246,408.91803 c 0.0874,0.34973 -0.0874,1.13662 0.26229,1.04918 0.34973,-0.0874 -0.42351,-1.37161 -0.26229,-1.04918 2.70315,5.4063 2.32215,10.60009 3.67213,16 0.44415,1.77662 1.31148,3.74741 1.31148,5.5082" /><path
       style="opacity:1;fill:none;fill-opacity:1;stroke:#6c9cb2;stroke-width:6.9;stroke-linecap:round;stroke-linejoin:round;stroke-miterlimit:1.3;stroke-dasharray:none;stroke-opacity:1;paint-order:fill markers stroke"
       d="m 225.57377,436.98361 c -1.22213,4.37272 0.0774,9.22771 2.41807,12.85195 2.34183,3.626 0.85866,8.30929 2.56554,12.06608 1.71568,3.77616 2.21068,8.39349 -0.30117,12.16042 -1.9802,2.96963 -5.23922,5.13567 -6.38674,8.61546 0,0 -0.0736,0.66095 -0.0736,0.66095"
       id="path76"
       inkscape:path-effect="#path-effect76"
       inkscape:original-d="m 225.57377,436.98361 c -1.27879,3.14891 0.64852,9.42818 3.40984,14.95082 0.92316,1.84632 0.76302,8.34571 1.57377,9.96721 1.05661,2.11323 2.18032,6.57378 1.31147,9.18033 -1.55473,4.66419 -8.07296,8.77008 -8.07296,12.2565"
       sodipodi:nodetypes="csssc" /><path
       style="opacity:1;fill:#fbf3ef;fill-opacity:1;stroke:none;stroke-width:5.3;stroke-linecap:round;stroke-linejoin:round;stroke-miterlimit:1.3;stroke-dasharray:none;stroke-opacity:1;paint-order:fill markers stroke"
       d="m 259.14754,381.90164 c 0,0 8.91803,15.47541 9.18033,20.98361 0.26229,5.50819 32.26229,-1.83607 32.26229,-1.83607 0,0 -4.45901,-16.78688 -7.34426,-19.40983 -2.88524,-2.62296 -34.09836,0.26229 -34.09836,0.26229 z"
       id="path89" /><path
       style="opacity:1;fill:none;fill-opacity:1;stroke:#6c9cb2;stroke-width:4.6;stroke-linecap:round;stroke-linejoin:round;stroke-miterlimit:1.3;stroke-dasharray:none;stroke-opacity:1;paint-order:fill markers stroke"
       d="m 247.86885,386.36066 c 0.62439,0.76152 1.31219,1.32242 0.35251,0.10604 -0.98535,-1.24891 -0.63523,-0.56343 0.0935,0.24171 1.40155,1.54849 2.30926,3.40606 3.10338,5.34166 1.48771,3.62621 2.15649,7.53104 4.02075,11.02472 1.24886,2.3404 2.74915,4.53757 3.97084,6.89242"
       id="path77"
       inkscape:path-effect="#path-effect77"
       inkscape:original-d="m 247.86885,386.36066 c 3.34102,3.56326 -3.68025,-4.79705 1.83607,2.09836 1.23825,1.54782 3.18087,7.73986 3.67213,9.70492 1.00623,4.02493 4.53306,8.80383 6.03279,11.80327" /><path
       style="opacity:1;fill:none;fill-opacity:1;stroke:#6c9cb2;stroke-width:4.6;stroke-linecap:round;stroke-linejoin:round;stroke-miterlimit:1.3;stroke-dasharray:none;stroke-opacity:1;paint-order:fill markers stroke"
       d="m 306.62295,386.88525 c 1.62958,6.07854 4.04229,11.93568 6.81967,17.57377"
       id="path78"
       inkscape:path-effect="#path-effect78"
       inkscape:original-d="m 306.62295,386.88525 c 1.57569,6.03983 4.44925,12.83291 6.81967,17.57377" /><path
       style="opacity:1;fill:none;fill-opacity:1;stroke:#6c9cb2;stroke-width:5.3;stroke-linecap:round;stroke-linejoin:round;stroke-miterlimit:1.3;stroke-dasharray:none;stroke-opacity:1;paint-order:fill markers stroke"
       d="m 335.73771,431.21312 c 0.7696,3.76393 3.24862,7.26774 5.48726,10.89168 2.09754,3.39553 3.33574,7.13199 4.87926,10.7955 2.06975,4.91248 6.75146,8.7424 7.699,13.95386 0.92029,5.06165 5.24206,8.89669 5.27874,14.19502"
       id="path79"
       inkscape:path-effect="#path-effect79"
       inkscape:original-d="m 335.73771,431.21312 c -1.15649,1.03916 3.66917,4.97179 4.45901,8.13114 0.96754,3.87016 3.8848,6.88344 4.72131,10.22951 1.09547,4.38186 5.88097,12.49359 8.39345,16.2623 0.80744,1.21116 0.89968,3.11084 1.57377,4.45901 1.7539,3.50782 4.19672,6.9619 4.19672,10.7541" /><path
       style="opacity:1;fill:none;fill-opacity:1;stroke:#494d55;stroke-width:5.3;stroke-linecap:round;stroke-linejoin:round;stroke-miterlimit:1.3;stroke-dasharray:none;stroke-opacity:1;paint-order:fill markers stroke"
       d="m 258.62295,384.2623 c 0,0 8.13115,6.81967 11.27869,27.01639"
       id="path80" /><path
       style="opacity:1;fill:#fbf3ef;fill-opacity:1;stroke:#4c4f59;stroke-width:6.9;stroke-linecap:round;stroke-linejoin:round;stroke-miterlimit:1.3;stroke-dasharray:none;stroke-opacity:1;paint-order:fill markers stroke"
       d="m 127.23285,329.0249 c 0,0 -2.59659,60.46343 13.72483,75.30108 8.16071,-8.16071 10.01541,-10.38636 10.01541,-10.38636 l 12.24107,8.53165 5.19317,-4.45129 2.22565,-19.65989 5.19318,-10.01542 5.93506,-12.24106 -8.53165,-8.53165 -15.95047,-19.28894 -3.33848,-4.82224 -4.45129,9.27353 c 0,0 -12.24106,0 -15.95048,-2.59659 -3.70941,-2.59658 -6.306,-1.11282 -6.306,-1.11282 z"
       id="path90" /><path
       style="opacity:1;fill:none;fill-opacity:1;stroke:#494d55;stroke-width:5.3;stroke-linecap:round;stroke-linejoin:round;stroke-miterlimit:1.3;stroke-dasharray:none;stroke-opacity:1;paint-order:fill markers stroke"
       d="m 291.67213,381.37705 c 0,0 7.08197,6.55738 10.22951,26.4918"
       id="path81" /><path
       style="opacity:1;fill:none;fill-opacity:1;stroke:#494d55;stroke-width:5.3;stroke-linecap:round;stroke-linejoin:round;stroke-miterlimit:1.3;stroke-dasharray:none;stroke-opacity:1;paint-order:fill markers stroke"
       d="m 270.16393,404.19672 c 0,0 16.00001,-3.93442 27.80328,-2.62295"
       id="path82" /><path
       style="opacity:1;fill:none;fill-opacity:1;stroke:#494d55;stroke-width:5.3;stroke-linecap:round;stroke-linejoin:round;stroke-miterlimit:1.3;stroke-dasharray:none;stroke-opacity:1;paint-order:fill markers stroke"
       d="m 253.90164,417.83607 c 0,0 37.2459,-13.11476 69.77049,-9.18033 2.09836,3.67213 5.77049,16.78688 -5.77049,20.98361 -4.72131,0 -19.14754,-1.57378 -22.55738,-0.5246 -3.40983,1.04919 -12.59016,0.5246 -18.36065,4.45902 -5.77049,3.93443 -14.68853,8.91803 -18.36066,3.14754 -3.67213,-5.77049 -4.72131,-12.32787 -4.72131,-12.32787 z"
       id="path83" /><path
       style="opacity:1;fill:none;fill-opacity:1;stroke:#494d55;stroke-width:5.3;stroke-linecap:round;stroke-linejoin:round;stroke-miterlimit:1.3;stroke-dasharray:none;stroke-opacity:1;paint-order:fill markers stroke"
       d="m 276.45902,482.62295 c 0,0 -9.70492,-1.57377 1.04918,-46.42623"
       id="path84" /><path
       style="opacity:1;fill:#fcf6fa;fill-opacity:1;stroke:#494d55;stroke-width:5.3;stroke-linecap:round;stroke-linejoin:round;stroke-miterlimit:1.3;stroke-dasharray:none;stroke-opacity:1;paint-order:fill markers stroke"
       d="m 287.21312,432.78689 6.29508,50.88524 13.90164,-0.78688 -6.81968,-54.03279 z"
       id="path88" /><path
       style="opacity:1;fill:none;fill-opacity:1;stroke:#494d55;stroke-width:5.3;stroke-linecap:round;stroke-linejoin:round;stroke-miterlimit:1.3;stroke-dasharray:none;stroke-opacity:1;paint-order:fill markers stroke"
       d="m 287.73771,430.95082 5.77049,50.88525"
       id="path85" /><path
       style="opacity:1;fill:none;fill-opacity:1;stroke:#494d55;stroke-width:5.3;stroke-linecap:round;stroke-linejoin:round;stroke-miterlimit:1.3;stroke-dasharray:none;stroke-opacity:1;paint-order:fill markers stroke"
       d="m 300.32787,428.06557 c 0,0 2.09836,37.7705 7.34426,52.98361"
       id="path86" /><path
       style="opacity:1;fill:none;fill-opacity:1;stroke:#494d55;stroke-width:5.3;stroke-linecap:round;stroke-linejoin:round;stroke-miterlimit:1.3;stroke-dasharray:none;stroke-opacity:1;paint-order:fill markers stroke"
       d="m 313.18033,431.21312 c 0,0 7.60656,27.54098 10.22951,35.93442 2.62295,8.39344 -8.13115,15.73771 -8.13115,15.73771"
       id="path87" /><path
       style="opacity:1;fill:#bce4fd;fill-opacity:1;stroke:none;stroke-width:8.7;stroke-linecap:round;stroke-linejoin:round;stroke-miterlimit:1.3;stroke-dasharray:none;stroke-opacity:1;paint-order:fill markers stroke"
       d="m 164.23888,424.64081 -31.07097,26.05282 5.00771,13.72483 20.95818,15.20859 17.08508,2.15431 -11.1287,-20.55238 -1.54637,-22.78395 z"
       id="path74" /><path
       id="path73"
       style="opacity:1;fill:#ffffff;stroke-width:8.7;stroke-linecap:round;stroke-linejoin:round;stroke-miterlimit:1.3;paint-order:fill markers stroke"
       d="m 163.81755,451.10144 a 8.0341015,5.6995392 0 0 1 -8.0341,5.69954 8.0341015,5.6995392 0 0 1 -8.0341,-5.69954 8.0341015,5.6995392 0 0 1 8.0341,-5.69954 8.0341015,5.6995392 0 0 1 8.0341,5.69954 z" /><path
       style="opacity:1;fill:#fff9f6;fill-opacity:1;stroke:none;stroke-width:8.7;stroke-linecap:round;stroke-linejoin:round;stroke-miterlimit:1.3;stroke-dasharray:none;stroke-opacity:1;paint-order:fill markers stroke"
       d="m 338.36066,376.13115 c 0,0 1.83605,30.95081 -6.29509,51.40983 2.88525,1.04918 14.48107,0.26606 26.91267,-7.34238 12.4316,-7.60844 11.38242,-22.03467 11.38242,-22.03467 l 2.09836,28.85246 c 0,0 24.31867,-28.09873 24.2249,-52.60674 -0.0938,-24.50801 -1.66753,-26.08178 -1.66753,-26.08178 l -11.83407,-1.12685 z"
       id="path72" /><path
       style="opacity:1;fill:#fde9e7;fill-opacity:1;stroke:none;stroke-width:2.845;stroke-linecap:round;stroke-linejoin:round;stroke-miterlimit:1.3;stroke-dasharray:none;stroke-opacity:1;paint-order:fill markers stroke"
       d="m 339.7822,389.85927 c 0,0 38.20695,-7.78977 56.38307,-25.96589 5.56412,8.53165 8.16071,32.64283 8.16071,32.64283 l 2.59659,12.98294 16.32141,-62.68907 -6.67694,-5.19318 -5.93506,-17.43424 c 0,0 -15.20859,15.2086 -27.44966,22.99836 -12.24106,7.78977 -34.12659,19.28895 -34.12659,19.28895 l -10.7573,3.70941 z"
       id="path70" /><path
       style="opacity:1;fill:none;fill-opacity:1;stroke:#c3b4b0;stroke-width:2.845;stroke-linecap:round;stroke-linejoin:round;stroke-miterlimit:1.3;stroke-dasharray:none;stroke-opacity:1;paint-order:fill markers stroke"
       d="m 347.01555,369.64297 c 0,0 2.22565,10.01541 -1.8547,19.84536 -4.08036,9.82994 -5.00771,9.459 -5.00771,9.459"
       id="path69" /><path
       style="opacity:1;fill:#fde9e7;fill-opacity:1;stroke:none;stroke-width:6.945;stroke-linecap:round;stroke-linejoin:round;stroke-miterlimit:1.3;stroke-dasharray:none;stroke-opacity:1;paint-order:fill markers stroke"
       d="m 380.85246,480 c 0,0 44.59016,-17.31147 59.27869,-87.08197 6.81967,-2.62295 34.09836,-14.68852 39.34426,-25.70491 2.62295,-9.96722 -3.67213,-32 -3.67213,-32 l -24.65574,0.52459 -26.7541,4.72131 -4.72131,11.54098 -8.39344,52.45902 -13.11475,28.32787 -15.73771,36.19672 z"
       id="path68" /><path
       style="fill:none;fill-opacity:1;stroke:#4c4f59;stroke-width:8.74203;stroke-linecap:round;stroke-miterlimit:1.3;stroke-dasharray:none;stroke-opacity:1;paint-order:fill markers stroke"
       d="m 147.6556,277.03379 c 0,0 -11.12655,104.13607 127.58449,103.38689 138.71104,-0.74917 149.83759,-100.39017 149.83759,-100.39017"
       id="path41"
       inkscape:label="脸蛋" /><path
       style="opacity:1;fill:#fff9f6;fill-opacity:1;stroke:none;stroke-width:6.5;stroke-linecap:round;stroke-miterlimit:1.3;stroke-dasharray:none;stroke-opacity:1;paint-order:fill markers stroke"
       d="m 123.27869,147.93443 304.78688,21.50819 -24.65573,-40.39344 c 0,0 44.06557,-58.754098 50.88524,-60.327868 6.81967,-1.573771 15.73771,-9.967214 15.73771,-9.967214 l -13.11476,-3.672131 -77.11475,22.032787 c 0,0 -122.7541,-33.57377 -168.39344,-6.295082 -45.63935,27.278689 -69.7705,46.163938 -69.7705,46.163938 z"
       id="path33"
       inkscape:label="头发底色2" /><path
       style="fill:#fde9e7;fill-opacity:1;stroke:none;stroke-width:6.5;stroke-linecap:round;stroke-miterlimit:1.3;stroke-dasharray:none;stroke-opacity:1;paint-order:fill markers stroke"
       d="m 331.44501,66.651771 16.22882,30.84274 47.82991,31.367399 6.30629,1.07795 26.88325,-35.335399 -32.10312,-22.211018 -18.88524,5.245901 -30.42623,-11.540983 z"
       id="path35"
       inkscape:label="头发部件111" /><path
       style="opacity:1;fill:#ace0fe;fill-opacity:1;stroke:none;stroke-width:14.5;stroke-linecap:round;stroke-miterlimit:1.3;stroke-dasharray:none;stroke-opacity:1;paint-order:fill markers stroke"
       d="m 431.03375,175.82616 17.06329,-17.0633 50.44802,71.96261 -5.93506,17.80518 -33.38472,18.54706 -12.612,-16.32142 17.80518,-11.12823 z"
       id="path29"
       inkscape:label="蓝色发卡上" /><path
       style="opacity:1;fill:#ace0fe;fill-opacity:1;stroke:#4c4f59;stroke-width:6.945;stroke-linecap:round;stroke-linejoin:round;stroke-miterlimit:1.3;stroke-dasharray:none;stroke-opacity:1;paint-order:fill markers stroke"
       d="m 465.90223,261.88453 c 0,0 35.61036,54.52837 2.96753,73.44637 -25.22401,4.08036 -48.22237,2.22565 -48.22237,2.22565 l 10.38636,-26.33683 21.51459,-41.91636 z"
       id="path66"
       inkscape:label="蓝色发卡下" /><path
       style="opacity:1;fill:#febdc7;fill-opacity:1;stroke:none;stroke-width:4.6;stroke-linecap:round;stroke-linejoin:round;stroke-miterlimit:1.3;stroke-dasharray:none;stroke-opacity:1;paint-order:fill markers stroke"
       d="m 471.86885,57.704918 c 0,0 17.04918,68.983602 -11.01639,110.426232 -7.34426,0.26229 -9.18033,-10.49181 -9.18033,-10.49181 l 2.09836,-6.55737 -1.04918,-9.18033 2.36066,-10.7541 1.83606,-5.5082 -6.29508,-6.03278 -6.55738,-5.2459 -2.88524,-5.24591 2.88524,-5.2459 -2.62295,-5.245899 -4.19672,-2.885246 -3.14754,-1.57377 5.2459,-11.540984 11.80328,-7.344262 z"
       id="path64" /><path
       id="path57"
       style="opacity:1;fill:#ff1c1c;fill-opacity:0.0509804;stroke-width:3.92397;stroke-linecap:round;stroke-linejoin:round;stroke-miterlimit:1.3;paint-order:fill markers stroke"
       d="m 244.26691,326.81357 a 35.587568,21.480417 0 0 1 -35.58757,21.48042 35.587568,21.480417 0 0 1 -35.58757,-21.48042 35.587568,21.480417 0 0 1 35.58757,-21.48042 35.587568,21.480417 0 0 1 35.58757,21.48042 z" /><path
       id="path57-1"
       style="fill:#ff1c1c;fill-opacity:0.05044398;stroke-width:3.65169;stroke-linecap:round;stroke-linejoin:round;stroke-miterlimit:1.3;paint-order:fill markers stroke"
       d="m 355.20429,336.75188 a 31.611719,20.942554 0 0 1 -31.61171,20.94255 31.611719,20.942554 0 0 1 -31.61172,-20.94255 31.611719,20.942554 0 0 1 31.61172,-20.94255 31.611719,20.942554 0 0 1 31.61171,20.94255 z" /><path
       style="display:inline;opacity:1;fill:#fbf3ef;fill-opacity:1;stroke:#4c4f59;stroke-width:6.5;stroke-linecap:round;stroke-miterlimit:1.3;stroke-dasharray:none;stroke-opacity:1;paint-order:fill markers stroke"
       d="m 188.32787,343.60656 c 0,0 12.06557,-28.32787 15.7377,6.29508 5.24591,-8.91803 9.96722,-17.31148 17.31148,-8.39344 6.81967,2.09836 15.21311,7.34426 4.72131,22.03278 -10.4918,14.68853 16.33814,-18.37136 15.445,-1.63289 -0.72099,13.51206 -24.52214,46.81129 -24.52214,46.81129 0,0 -6.33782,64.18547 -33.41466,70.23144 -36.5485,8.16089 -12.06558,-103.86885 -12.06558,-103.86885 z"
       id="path1"
       sodipodi:nodetypes="cccsscscc"
       inkscape:label="右手" /><path
       id="path5"
       style="fill:#fbe7e5;stroke-width:10.4;stroke-linecap:round;stroke-miterlimit:1.3;paint-order:fill markers stroke;fill-opacity:0.40581462"
       inkscape:label="右手踝阴影"
       d="m 193.63133,383.92419 a 12.612,12.241061 0 0 1 -12.612,12.24107 12.612,12.241061 0 0 1 -12.612,-12.24107 12.612,12.241061 0 0 1 12.612,-12.24106 12.612,12.241061 0 0 1 12.612,12.24106 z" /><path
       style="fill:#fee4e0;fill-opacity:0.42411327;stroke:none;stroke-width:10.4;stroke-linecap:round;stroke-miterlimit:1.3;stroke-dasharray:none;stroke-opacity:1;paint-order:fill markers stroke"
       d="m 179.09741,356.52608 14.09576,-20.77271 7.04789,1.48377 0.74188,13.72482 11.49918,-11.49918 9.27353,4.08036 8.53165,5.93506 -5.56412,14.83765 13.72483,-4.82224 -3.33847,17.80518 -47.85143,-27.44965 z"
       id="path9"
       inkscape:label="右手手指阴影" /><path
       style="display:inline;fill:none;fill-opacity:1;stroke:#4c4f59;stroke-width:6.5;stroke-linecap:round;stroke-miterlimit:1.3;stroke-dasharray:none;stroke-opacity:1;paint-order:fill markers stroke"
       d="m 188.32787,343.60656 c 0,0 12.06557,-28.32787 15.7377,6.29508 5.24591,-8.91803 9.96722,-17.31148 17.31148,-8.39344 6.81967,2.09836 15.21311,7.34426 4.72131,22.03278 -10.4918,14.68853 16.33814,-18.37136 15.445,-1.63289 -0.72099,13.51206 -24.52214,46.81129 -24.52214,46.81129 0,0 -6.33782,64.18547 -33.41466,70.23144 -36.5485,8.16089 -12.06558,-103.86885 -12.06558,-103.86885 z"
       id="path1-6"
       sodipodi:nodetypes="cccsscscc"
       inkscape:label="右手遮挡" /><path
       style="opacity:1;fill:#fff9f6;fill-opacity:1;stroke:#4c4f59;stroke-width:6.5;stroke-linecap:round;stroke-miterlimit:1.3;stroke-dasharray:none;stroke-opacity:1;paint-order:fill markers stroke"
       d="m 137.44262,123.2787 c 0,0 49.33852,-48.649769 86.97684,-58.734919 0.10513,0.76769 -120.16719,-122.15824 -86.97684,58.734919 z"
       id="path3"
       inkscape:label="头发部件19 左猫耳" /><path
       style="fill:#fde9e7;fill-opacity:1;stroke-width:1.18016;stroke-linecap:round;stroke-linejoin:round;stroke-miterlimit:1.3;paint-order:fill markers stroke"
       d="m 198.85246,42 -63.6342,39.016573 3.84123,40.939237 L 184.82787,87 224,64.5 Z"
       id="path58"
       sodipodi:nodetypes="cccccc" /><path
       style="opacity:1;fill:#1a1a1a;fill-opacity:0.465732;stroke:#a18f90;stroke-width:6.5;stroke-linecap:round;stroke-miterlimit:1.3;stroke-dasharray:none;stroke-opacity:1;paint-order:fill markers stroke"
       id="path4"
       d="m 404.96447,131.7729 c 0.52512,-0.76931 1.0357,-1.54875 1.57536,-2.30793 2.82418,-3.97291 5.82035,-7.82036 8.67758,-11.76948 2.39309,-3.30762 3.93978,-5.54326 6.29133,-8.89998 5.32612,-7.58044 11.18023,-14.760796 17.20894,-21.78699 3.02173,-3.55064 6.06655,-7.098864 9.47662,-10.289082 1.96198,-1.835492 4.21906,-3.672787 6.27415,-5.392122 5.10823,-4.357455 10.66931,-8.109574 16.22169,-11.862072 0,0 -2.92504,-1.864176 -2.92504,-1.864176 v 0 c -5.41592,3.900149 -10.90348,7.705144 -15.99184,12.040062 -1.99887,1.645368 -4.44389,3.611151 -6.36286,5.369248 -3.45237,3.162941 -6.48944,6.731577 -9.48752,10.316639 -5.95526,7.087894 -11.63254,14.399231 -17.00034,21.944173 -5.47138,7.72885 -10.96322,15.45542 -17.11251,22.66867 z"
       inkscape:label="头发部件18" /><path
       style="opacity:1;fill:#1a1a1a;fill-opacity:0.465732;stroke:#a18f90;stroke-width:6.5;stroke-linecap:round;stroke-miterlimit:1.3;stroke-dasharray:none;stroke-opacity:1;paint-order:fill markers stroke"
       id="path6"
       d="m 431.7055,96.885136 c 0.68345,-0.01683 1.36993,0.008 2.05351,0.03239 1.26616,0.04274 2.52519,0.175792 3.77564,0.374299 1.34943,0.219358 2.67703,0.547853 3.99756,0.89747 1.30448,0.342355 2.58658,0.760225 3.8587,1.206247 0.34787,0.132122 0.88919,0.332358 1.23164,0.483411 0.1893,0.0835 0.73774,0.373687 0.5597,0.268307 -4.92017,-2.912189 -2.83776,-1.86942 -2.01609,-0.911603 0.4665,0.942833 -0.25414,1.810973 -0.83258,2.515753 -1.05305,1.11546 -2.37988,1.92349 -3.65077,2.76486 -0.70455,0.52564 -1.84263,0.99551 -2.02707,1.9792 -0.13577,0.72412 0.14689,1.00706 0.45808,1.64499 0.25805,0.31484 0.49646,0.64686 0.77415,0.94453 0.63085,0.67625 1.54885,1.45348 2.25243,2.03623 1.28413,1.06359 2.61277,2.07518 3.92585,3.10243 2.22765,1.73231 4.46676,3.44711 6.4408,5.4696 1.24472,1.36548 2.33589,2.86124 3.10757,4.54226 0.57402,1.31239 0.61894,2.68201 0.46471,4.08008 -0.15236,1.542 -1.01177,2.74753 -1.96982,3.90485 -1.25092,1.39253 -2.70297,2.57966 -3.98322,3.94302 -0.61776,0.76458 -1.19371,1.60995 -1.3359,2.60746 -0.0756,0.53059 -0.0152,0.87319 0.031,1.40055 0.18192,1.34638 0.59785,2.64226 1.03422,3.92358 0.46172,1.36123 1.10075,2.65093 1.71056,3.94949 0.57934,1.12566 0.88081,2.32829 0.97901,3.58284 0.0285,1.01273 -0.14083,2.01608 -0.35002,3.00302 -0.18321,0.8594 -0.39147,1.62037 -0.92358,2.32955 -0.69384,0.72591 -1.52468,1.30006 -2.31082,1.91913 0,0 3.13155,1.96912 3.13155,1.96912 v 0 c 0.80747,-0.64335 1.66352,-1.23803 2.37418,-1.9921 0.58364,-0.77755 0.80933,-1.52536 1.00495,-2.4688 0.21825,-1.01967 0.38801,-2.05558 0.38421,-3.10149 -0.0761,-1.29512 -0.34601,-2.55043 -0.93895,-3.71574 -0.60728,-1.2882 -1.24849,-2.56502 -1.72185,-3.91075 -0.43768,-1.25837 -0.85635,-2.529 -1.07055,-3.84806 -0.053,-0.43231 -0.12968,-0.85315 -0.0855,-1.29165 0.0948,-0.94059 0.64999,-1.73394 1.21835,-2.45227 1.27656,-1.3752 2.72864,-2.57131 3.98645,-3.96542 1.00742,-1.20382 1.92485,-2.46496 2.104,-4.07351 0.17452,-1.45227 0.1673,-2.88462 -0.39573,-4.26425 -0.74413,-1.73945 -1.85028,-3.26977 -3.10544,-4.6809 -0.76822,-0.80351 -0.91233,-0.98548 -1.76144,-1.74089 -1.5106,-1.3439 -3.15419,-2.52947 -4.72414,-3.80078 -1.30934,-1.02359 -2.63319,-2.03185 -3.9193,-3.08473 -0.71006,-0.5813 -1.57278,-1.30278 -2.22387,-1.96185 -0.27049,-0.2738 -0.51217,-0.57463 -0.76826,-0.86194 -0.2502,-0.39692 -0.62512,-0.79772 -0.57512,-1.31981 0.0792,-0.82671 1.33713,-1.38331 1.899,-1.81756 1.29884,-0.86671 2.65474,-1.69887 3.73107,-2.84377 0.6873,-0.83746 1.4042,-1.79633 1.075,-2.93575 -0.0816,-0.13585 -0.14456,-0.28482 -0.24481,-0.40755 -0.1097,-0.13429 -0.23095,-0.26613 -0.3791,-0.356228 -1.82458,-1.109627 -3.48552,-2.166773 -5.4739,-2.822822 -1.27815,-0.438878 -2.56689,-0.847162 -3.87638,-1.183261 -1.32827,-0.341807 -2.66392,-0.6605 -4.021,-0.867076 -1.26646,-0.185139 -2.54065,-0.306124 -3.82011,-0.354118 -0.68835,-0.02484 -1.39159,-0.0088 -2.07079,-0.120664 z"
       inkscape:label="头发部件17" /><path
       style="display:inline;opacity:1;fill:#1a1a1a;fill-opacity:0.465732;stroke:#4c4f59;stroke-width:6.5;stroke-linecap:round;stroke-miterlimit:1.3;stroke-dasharray:none;stroke-opacity:1;paint-order:fill markers stroke"
       id="path7"
       d="m 472.56515,132.89174 c 0.0148,0.77317 -0.10076,1.54619 -0.19578,2.31209 -0.22663,1.66469 -0.65036,3.29152 -1.09324,4.90909 -0.61155,2.16519 -1.31643,4.30298 -2.07388,6.4211 -0.85906,2.40245 -1.88628,4.73722 -3.04362,7.0095 -1.12519,2.18837 -2.40662,4.28829 -3.77255,6.3331 -1.20044,1.78353 -2.51232,3.48695 -3.85961,5.16088 -0.77567,0.94691 -1.56273,1.88443 -2.34905,2.82249 0,0 3.09439,1.85764 3.09439,1.85764 v 0 c 0.78058,-0.94434 1.56325,-1.88703 2.331,-2.84187 1.33972,-1.69155 2.6509,-3.40675 3.84535,-5.20534 1.36483,-2.06191 2.64248,-4.17929 3.77385,-6.37958 1.16439,-2.28454 2.19746,-4.6314 3.07763,-7.04092 0.77266,-2.11878 1.49327,-4.25705 2.12518,-6.4224 0.46749,-1.62041 0.91079,-3.25003 1.1854,-4.9163 0.11547,-0.76691 0.21504,-1.53597 0.32143,-2.30416 z"
       inkscape:label="头发部件16" /><path
       style="display:inline;opacity:1;fill:#fff9f6;fill-opacity:1;stroke:#4c4f59;stroke-width:6.5;stroke-linecap:round;stroke-miterlimit:1.3;stroke-dasharray:none;stroke-opacity:1;paint-order:fill markers stroke"
       d="m 322.62295,86.032787 c 0,0 75.43341,26.120553 110.16394,89.180323 33.44261,60.72132 33.04918,62.42623 33.04918,62.42623 0,0 0.52459,8.39345 -19.93443,11.54099 -2.62295,0 14.68852,30.95082 19.93443,37.2459 -14.68853,7.34426 -16.78689,8.91803 -16.78689,8.91803 0,0 6.29508,7.86885 4.72131,15.73771 -17.31147,-0.52459 -22.55738,-1.04918 -22.55738,-1.04918 0,0 -4.19672,17.31147 -15.7377,33.04918 C 410.22951,333.11475 410.22951,320 410.22951,320 c 0,0 -24.13115,36.72131 -72.39344,41.44262 -1.57377,-2.62295 12.59016,-14.16393 17.83606,-28.32787 -11.54098,1.57377 -14.68852,2.09836 -14.68852,2.09836 l 10.4918,-16.78688 c 0,0 11.01639,-24.13115 9.44262,-28.32787 -1.04918,-2.62295 -32,-57.70492 -32,-57.70492 0,0 -24.65573,33.04918 -43.54098,49.83607 -6.81967,-4.19672 -13.63934,-14.68853 -13.63934,-14.68853 l -12.59017,11.54099 c 0,0 -48.43778,-50.76436 -42.0945,-90.18318 -3.14754,12.06557 0.12729,56.60941 -5.6432,62.3799 -5.24591,-2.09836 -16.2623,-14.68853 -14.16394,-40.91803 -0.52459,-0.52459 -29.90164,41.44262 -29.90164,41.44262 0,0 -4.19672,48.78688 16.2623,73.44262 1.57377,2.62295 -1.57377,16.2623 -31.47541,-2.62295 1.04918,-1.57377 -1.04918,9.96721 -1.04918,9.96721 0,0 -46.68853,2.09836 -45.63935,-60.85245 -2.62295,-2.62296 -13.639341,34.09836 -13.639341,34.09836 0,0 -24.131151,-32 -0.52459,-92.85246 11.803281,-30.42623 23.344261,-52.85246 31.934421,-67.67213 8.59017,-14.81968 14.22951,-22.03279 14.22951,-22.03279"
       id="path8"
       sodipodi:nodetypes="csccccccccccccccccccccccccccssc"
       inkscape:label="头发部件15 头发底色" /><path
       id="path36"
       style="fill:#fffdfc;stroke-width:7.4278;stroke-linecap:round;stroke-miterlimit:1.3;paint-order:fill markers stroke"
       inkscape:label="头发打光"
       d="m 355.67214,146.88524 a 91.803276,41.967213 0 0 1 -91.80327,41.96721 91.803276,41.967213 0 0 1 -91.80328,-41.96721 91.803276,41.967213 0 0 1 91.80328,-41.96721 91.803276,41.967213 0 0 1 91.80327,41.96721 z" /><path
       style="fill:#fde9e7;fill-opacity:1;stroke:none;stroke-width:6.5;stroke-linecap:round;stroke-miterlimit:1.3;stroke-dasharray:none;stroke-opacity:1;paint-order:fill markers stroke"
       d="m 349.37705,329.44262 c 0,0 71.34426,-41.96721 78.68852,-91.27868 0,1.04918 26.22951,28.32786 26.22951,28.32786 l 11.54099,24.13115 -15.73771,7.34426 2.09836,13.63935 -22.03279,-1.04918 -12.59016,30.42623 -12.59016,-17.83607 -23.08197,26.22951 -45.11475,14.68852 z"
       id="path37"
       inkscape:label="头发阴影"
       sodipodi:nodetypes="cccccccccccc" /><path
       style="fill:#fde9e7;fill-opacity:1;stroke:none;stroke-width:6.5;stroke-linecap:round;stroke-miterlimit:1.3;stroke-dasharray:none;stroke-opacity:1;paint-order:fill markers stroke"
       d="m 325.2459,144.78689 c 0,0 10.49181,44.06557 2.09836,78.68852 0,10.4918 33.57377,60.85246 33.57377,60.85246 0,0 14.68853,-71.34426 -25.18032,-132.19672 -8.39345,-5.2459 -10.49181,-7.34426 -10.49181,-7.34426 z"
       id="path38"
       inkscape:label="头发阴影2" /><path
       style="fill:#fde9e7;fill-opacity:1;stroke:none;stroke-width:6.5;stroke-linecap:round;stroke-miterlimit:1.3;stroke-dasharray:none;stroke-opacity:1;paint-order:fill markers stroke"
       d="m 186.7541,166.81967 23.08197,1.04918 c 0,0 -14.68853,26.22951 -13.63935,46.16394 -2.09836,-3.14754 -22.03279,31.47541 -22.03279,31.47541 0,0 -9.44262,-14.68853 -3.14754,-50.36066 9.44263,-16.78688 15.73771,-28.32787 15.73771,-28.32787 z"
       id="path39"
       inkscape:label="头发阴影" /><path
       id="path36-5"
       style="fill:#fffdfc;stroke-width:6.94619;stroke-linecap:round;stroke-miterlimit:1.3;paint-order:fill markers stroke"
       inkscape:label="头发打光"
       transform="matrix(0.99965843,-0.02613486,0,1,0,0)"
       d="m 340.28017,112.23744 a 80.289719,41.967213 0 0 1 -80.28972,41.96721 80.289719,41.967213 0 0 1 -80.28972,-41.96721 80.289719,41.967213 0 0 1 80.28972,-41.967211 80.289719,41.967213 0 0 1 80.28972,41.967211 z" /><path
       style="opacity:1;fill:none;fill-opacity:1;stroke:#a18f90;stroke-width:7.7;stroke-linecap:round;stroke-linejoin:round;stroke-miterlimit:1.3;stroke-dasharray:none;stroke-opacity:1;paint-order:fill markers stroke"
       d="m 138.62295,122.4918 c 0,0 53.63935,-52.983604 92.98361,-58.229505"
       id="path65"
       sodipodi:nodetypes="cc" /><path
       style="opacity:1;fill:#1a1a1a;fill-opacity:0;stroke:#c3b4b0;stroke-width:6.5;stroke-linecap:round;stroke-miterlimit:1.3;stroke-dasharray:none;stroke-opacity:1;paint-order:fill markers stroke"
       d="m 436.45902,268.06557 c 0,0 3.67213,18.36066 -2.62295,42.49181"
       id="path17"
       inkscape:label="头发部件7" /><path
       style="opacity:1;fill:#1a1a1a;fill-opacity:0;stroke:#c3b4b0;stroke-width:6.5;stroke-linecap:round;stroke-miterlimit:1.3;stroke-dasharray:none;stroke-opacity:1;paint-order:fill markers stroke"
       d="m 418.09836,305.83607 -8.91803,17.83606"
       id="path16"
       inkscape:label="头发部件8" /><path
       style="opacity:1;fill:#1a1a1a;fill-opacity:0;stroke:#c3b4b0;stroke-width:6.5;stroke-linecap:round;stroke-miterlimit:1.3;stroke-dasharray:none;stroke-opacity:1;paint-order:fill markers stroke"
       d="m 377.70492,300.59016 c 0,0 2.62295,12.06558 -22.03279,32"
       id="path15"
       inkscape:label="头发部件9" /><path
       style="opacity:1;fill:#1a1a1a;fill-opacity:0;stroke:#c3b4b0;stroke-width:4.2;stroke-linecap:round;stroke-miterlimit:1.3;stroke-dasharray:none;stroke-opacity:1;paint-order:fill markers stroke"
       d="m 284.32787,97.573771 c 0,0 12.06557,39.344259 -27.80328,119.081969 0.52459,0 53.5082,-38.81967 56.13115,-89.18033"
       id="path10"
       inkscape:label="头发部件14" /><path
       style="opacity:1;fill:#1a1a1a;fill-opacity:0;stroke:#c3b4b0;stroke-width:5.1;stroke-linecap:round;stroke-miterlimit:1.3;stroke-dasharray:none;stroke-opacity:1;paint-order:fill markers stroke"
       d="m 272.78689,87.081967 c 0,0 13.63934,-8.393442 18.88524,-0.52459 17.17267,10.839383 13.03281,30.236103 24.19672,44.393443 1.79263,1.85342 7.1718,-0.78131 7.80328,1.77049 4.88126,19.72513 14.81582,50.80617 4.32401,100.11764"
       id="path11"
       sodipodi:nodetypes="csssc"
       inkscape:label="头发部件13" /><path
       style="opacity:1;fill:#1a1a1a;fill-opacity:0;stroke:#c3b4b0;stroke-width:4.5;stroke-linecap:round;stroke-miterlimit:1.3;stroke-dasharray:none;stroke-opacity:1;paint-order:fill markers stroke"
       d="m 171.00392,241.8537 c 0,0 -28.56248,-60.09248 92.36438,-147.634619 2.22564,0.741882 -59.35061,54.157419 -66.02755,111.282379"
       id="path12"
       inkscape:label="头发部件12" /><path
       style="opacity:1;fill:#1a1a1a;fill-opacity:0;stroke:#c3b4b0;stroke-width:3;stroke-linecap:round;stroke-miterlimit:1.3;stroke-dasharray:none;stroke-opacity:1;paint-order:fill markers stroke"
       d="m 327.34426,143.7377 c 0,0 25.18033,20.45902 32,65.57378"
       id="path13"
       inkscape:label="头发部件11" /><path
       style="opacity:1;fill:#1a1a1a;fill-opacity:0;stroke:#4c4f59;stroke-width:6.5;stroke-linecap:round;stroke-miterlimit:1.3;stroke-dasharray:none;stroke-opacity:1;paint-order:fill markers stroke"
       d="m 362.4918,268.59016 -3.14754,19.93443"
       id="path14"
       inkscape:label="头发部件10" /><path
       style="opacity:1;fill:#1a1a1a;fill-opacity:0;stroke:#4c4f59;stroke-width:6.5;stroke-linecap:round;stroke-miterlimit:1.3;stroke-dasharray:none;stroke-opacity:1;paint-order:fill markers stroke"
       d="m 421.77049,344.13115 c 0,0 -2.62295,58.22951 -33.57377,111.7377 -30.95082,53.5082 38.29508,15.73771 38.29508,15.73771"
       id="path18"
       inkscape:label="头发部件6" /><path
       style="opacity:1;fill:#1a1a1a;fill-opacity:0;stroke:#4c4f59;stroke-width:6.5;stroke-linecap:round;stroke-miterlimit:1.3;stroke-dasharray:none;stroke-opacity:1;paint-order:fill markers stroke"
       d="m 395.01639,348.32787 12.06558,60.32787"
       id="path19"
       inkscape:label="头发部件5" /><path
       style="opacity:1;fill:#1a1a1a;fill-opacity:0;stroke:#4c4f59;stroke-width:6.5;stroke-linecap:round;stroke-miterlimit:1.3;stroke-dasharray:none;stroke-opacity:1;paint-order:fill markers stroke"
       d="m 371.93443,423.86885 c 0,0 30.95082,-25.70492 24.65573,-73.96721"
       id="path20"
       inkscape:label="头发部件4" /><path
       style="opacity:1;fill:#1a1a1a;fill-opacity:0;stroke:#4c4f59;stroke-width:6.5;stroke-linecap:round;stroke-miterlimit:1.3;stroke-dasharray:none;stroke-opacity:1;paint-order:fill markers stroke"
       d="m 332.06557,427.54098 c 0,0 36.72132,1.57377 38.81968,-29.37705"
       id="path21"
       inkscape:label="头发部件3" /><path
       style="opacity:1;fill:#1a1a1a;fill-opacity:0;stroke:#4c4f59;stroke-width:6.5;stroke-linecap:round;stroke-miterlimit:1.3;stroke-dasharray:none;stroke-opacity:1;paint-order:fill markers stroke"
       d="m 372.45902,427.01639 -2.09836,-28.85246"
       id="path22"
       inkscape:label="头发部件2" /><path
       style="fill:#93cefc;fill-opacity:1;stroke:#4d4e59;stroke-width:6.5;stroke-linecap:round;stroke-miterlimit:1.3;stroke-dasharray:none;stroke-opacity:1;paint-order:fill markers stroke"
       d="m 377.50929,228.61046 c 0,0 24.13115,1.57377 24.13115,10.49181 -0.52459,3.67213 -11.54099,17.83606 -23.60656,18.88524 -2.09836,-1.57377 -0.52459,-29.37705 -0.52459,-29.37705 z"
       id="path34"
       sodipodi:nodetypes="cccc"
       inkscape:label="兔子发卡后" /><path
       style="opacity:1;fill:#fffdfe;fill-opacity:1;stroke:#4c4f59;stroke-width:6.5;stroke-linecap:round;stroke-miterlimit:1.3;stroke-dasharray:none;stroke-opacity:1;paint-order:fill markers stroke"
       d="m 350.95082,235.54098 c 0,0 -6.55738,-22.03278 1.04918,-22.03278 7.60656,0 13.37705,13.90164 13.37705,13.90164 0,0 5.05941,-17.72738 9.96722,-15.21311 11.79758,6.04389 3.40983,21.77048 3.40983,21.77048 0,0 18.62295,25.96722 -12.06558,27.27869 -30.16717,1.28919 -15.7377,-25.70492 -15.7377,-25.70492 z"
       id="path24"
       sodipodi:nodetypes="cscscsc"
       inkscape:label="兔子发卡" /><path
       style="display:inline;opacity:1;fill:#1a1a1a;fill-opacity:0;stroke:#4c4f59;stroke-width:6.5;stroke-linecap:round;stroke-miterlimit:1.3;stroke-dasharray:none;stroke-opacity:1;paint-order:fill markers stroke"
       d="m 332.06557,425.96721 c 0,0 10.49181,-25.18032 6.29509,-49.83606"
       id="path23"
       inkscape:label="头发部件" /><path
       style="display:inline;opacity:1;fill:#e85240;fill-opacity:1;stroke:#4c4f59;stroke-width:6.5;stroke-linecap:round;stroke-miterlimit:1.3;stroke-dasharray:none;stroke-opacity:1;paint-order:fill markers stroke"
       d="m 192.2623,268.85246 c 0,0 -15.47541,22.03279 -2.62296,35.40984 42.7541,0.26229 43.27869,0.52459 43.27869,0.52459 0,0 11.27869,-8.39345 5.5082,-32 -25.44262,-9.96722 -46.16393,-3.93443 -46.16393,-3.93443 z"
       id="path25"
       inkscape:label="左眼白" /><path
       style="opacity:1;fill:#fbb579;fill-opacity:1;stroke:none;stroke-width:6.5;stroke-linecap:round;stroke-miterlimit:1.3;stroke-dasharray:none;stroke-opacity:1;paint-order:fill markers stroke"
       d="m 188.06557,301.11475 c -0.44151,-8.78192 13.4528,-14.01636 22.29509,-14.42623 8.67244,-0.402 23.2398,3.38526 23.08196,12.06558 -0.0775,4.26198 -11.54098,5.5082 -11.54098,5.5082 0,0 -33.2673,8.16555 -33.83607,-3.14755 z"
       id="path27"
       sodipodi:nodetypes="saacs"
       inkscape:label="左眼瞳" /><path
       id="path26"
       style="display:inline;opacity:1;fill:#ffffff;stroke-width:6.5;stroke-linecap:round;stroke-miterlimit:1.3;paint-order:fill markers stroke"
       inkscape:label="眼光"
       d="m 217.96721,273.04919 a 7.8688526,7.0819674 0 0 1 -7.86885,7.08197 7.8688526,7.0819674 0 0 1 -7.86885,-7.08197 7.8688526,7.0819674 0 0 1 7.86885,-7.08196 7.8688526,7.0819674 0 0 1 7.86885,7.08196 z" /><path
       style="fill:none;fill-opacity:1;stroke:#ebc2bf;stroke-width:2.5;stroke-linecap:round;stroke-miterlimit:1.3;stroke-dasharray:none;stroke-opacity:1;paint-order:fill markers stroke"
       d="m 174.16393,245.5082 c 15.08644,-4.76649 31.53934,-7.45293 47.09358,-3.51527 3.29779,0.83486 6.51821,1.99257 9.56216,3.51527"
       id="path42"
       inkscape:path-effect="#path-effect42"
       inkscape:original-d="m 174.16393,245.5082 c 11.60252,-3.79212 36.99244,-9.83166 56.65574,0"
       transform="translate(0,4)" /><path
       style="opacity:1;fill:#fde9e7;fill-opacity:1;stroke:none;stroke-width:6.945;stroke-linecap:round;stroke-linejoin:round;stroke-miterlimit:1.3;stroke-dasharray:none;stroke-opacity:1;paint-order:fill markers stroke"
       d="m 477.77235,132.79697 c 0,0 13.35388,10.01542 14.83765,17.43424 1.48376,7.41883 1.48376,57.4959 1.48376,57.4959 l -4.45129,1.11282 -30.78813,-37.46507 c 0,0 8.90259,-14.46671 11.12824,-22.62741 2.22565,-8.16071 7.78977,-15.95048 7.78977,-15.95048 z"
       id="path67" /><path
       style="fill:#e85240;fill-opacity:0;stroke:#4c4f59;stroke-width:6.5;stroke-linecap:round;stroke-miterlimit:1.3;stroke-dasharray:none;stroke-opacity:1;paint-order:fill markers stroke"
       d="m 192.2623,268.85246 c 0,0 -15.47541,22.03279 -2.62296,35.40984 42.7541,0.26229 43.27869,0.52459 43.27869,0.52459 0,0 11.27869,-8.39345 5.5082,-32 -25.44262,-9.96722 -46.16393,-3.93443 -46.16393,-3.93443 z"
       id="path25-9"
       inkscape:label="左眼遮挡上" /><path
       style="display:inline;fill:#e85240;fill-opacity:1;stroke:#4c4f59;stroke-width:6.5;stroke-linecap:round;stroke-miterlimit:1.3;stroke-dasharray:none;stroke-opacity:1;paint-order:fill markers stroke"
       d="m 325.52138,272.81871 c 17.02505,1.06627 38.81967,23.08196 17.83607,48.26229 -1.57377,0.52459 -48.98481,-5.30599 -49.57378,-9.18033 -0.80561,-5.29953 -7.95666,-41.56799 31.73771,-39.08196 z"
       id="path40"
       sodipodi:nodetypes="scss"
       inkscape:label="右眼白" /><path
       style="fill:#fbb579;fill-opacity:1;stroke:none;stroke-width:7.14054;stroke-linecap:round;stroke-miterlimit:1.3;stroke-dasharray:none;stroke-opacity:1;paint-order:fill markers stroke"
       d="m 293.04592,306.32136 c 2.55323,-8.53469 20.43105,-9.52962 30.78942,-7.36618 10.1594,2.12188 25.66784,9.9581 22.45763,18.22228 -1.5762,4.05766 -15.25453,1.93723 -15.25453,1.93723 0,0 -41.28165,-1.79873 -37.99252,-12.79333 z"
       id="path27-0"
       sodipodi:nodetypes="saacs"
       inkscape:label="左眼瞳" /><path
       style="display:inline;fill:none;fill-opacity:1;stroke:#4c4f59;stroke-width:6.5;stroke-linecap:round;stroke-miterlimit:1.3;stroke-dasharray:none;stroke-opacity:1;paint-order:fill markers stroke"
       d="m 325.52138,272.81871 c 17.02505,1.06627 38.81967,23.08196 17.83607,48.26229 -1.57377,0.52459 -48.98481,-5.30599 -49.57378,-9.18033 -0.80561,-5.29953 -7.95666,-41.56799 31.73771,-39.08196 z"
       id="path40-2"
       sodipodi:nodetypes="scss"
       inkscape:label="右眼遮挡上" /><path
       style="fill:none;fill-opacity:1;stroke:#ebc2bf;stroke-width:2.5;stroke-linecap:round;stroke-miterlimit:1.3;stroke-dasharray:none;stroke-opacity:1;paint-order:fill markers stroke"
       d="m 309.32819,258.43459 c 0,0 26.2295,-5.2459 36.72131,4.19672"
       id="path43" /><path
       id="path26-9"
       style="display:inline;fill:#ffffff;stroke-width:6.5;stroke-linecap:round;stroke-miterlimit:1.3;paint-order:fill markers stroke"
       inkscape:label="眼光"
       d="m 329.6342,284.99301 a 7.8688526,7.0819674 0 0 1 -7.86885,7.08197 7.8688526,7.0819674 0 0 1 -7.86885,-7.08197 7.8688526,7.0819674 0 0 1 7.86885,-7.08197 7.8688526,7.0819674 0 0 1 7.86885,7.08197 z" /><path
       style="opacity:1;fill:none;fill-opacity:1;stroke:#4c4f59;stroke-width:14.5;stroke-linecap:round;stroke-miterlimit:1.3;stroke-dasharray:none;stroke-opacity:1;paint-order:fill markers stroke"
       d="m 170.4918,266.4918 c 0,0 32,-19.93442 70.29509,-2.09836"
       id="path28"
       inkscape:label="眉毛" /><path
       style="fill:none;fill-opacity:1;stroke:#4c4f59;stroke-width:14.5;stroke-linecap:round;stroke-miterlimit:1.3;stroke-dasharray:none;stroke-opacity:1;paint-order:fill markers stroke"
       d="m 292.9971,274.17683 c 0,0 35.55098,-12.55026 69.08832,13.13797"
       id="path28-2"
       inkscape:label="眉毛" /><path
       style="display:inline;opacity:1;fill:none;fill-opacity:0;stroke:#4c4f59;stroke-width:6.5;stroke-linecap:round;stroke-miterlimit:1.3;stroke-dasharray:none;stroke-opacity:1;paint-order:fill markers stroke"
       d="m 431.03375,176.1971 18.17612,-17.43424 41.54542,54.15742"
       id="path30"
       inkscape:label="蓝色发卡遮挡上" /><path
       style="opacity:1;fill:none;fill-opacity:0;stroke:#4c4f59;stroke-width:6.5;stroke-linecap:round;stroke-miterlimit:1.3;stroke-dasharray:none;stroke-opacity:1;paint-order:fill markers stroke"
       d="m 454.0321,267.44865 43.21466,-23.92571"
       id="path31"
       sodipodi:nodetypes="cc"
       inkscape:label="蓝色发卡遮挡下" /><path
       style="display:inline;fill:#fff9f6;fill-opacity:0;stroke:#4c4f59;stroke-width:6.5;stroke-linecap:round;stroke-miterlimit:1.3;stroke-dasharray:none;stroke-opacity:1;paint-order:fill markers stroke"
       d="m 164.23888,424.64081 -31.07097,26.05282 c 0,0 -5.19317,18.17613 25.96589,28.93342 31.15907,10.7573 213.29123,1.48377 213.29123,1.48377 0,0 52.30272,11.87012 80.86519,-37.09413 -0.37094,0.74188 -8.90259,19.28895 -8.90259,19.28895 l 1.48377,19.28894 c 0,0 57.73516,-9.41425 30.45647,-148.95524 4.19672,-9.44262 8.39344,-15.21311 8.39344,-15.21311 l -3.14754,-21.77049 c 0,0 5.65758,-40.33533 7.88323,-45.52851 2.22564,-5.19317 8.51558,-6.35116 9.64447,-11.12823 2.06907,-8.75561 -2.78206,-20.40177 -6.67694,-26.15136 -0.74189,-3.33847 6.86241,-35.05395 2.04017,-58.05231 -7.04788,-11.87012 -4.82223,-11.87012 -18.918,-25.59495 0,0.37094 8.90259,-44.88389 -0.74188,-73.446367 -2.96753,0 -32.27189,-10.757296 -96.81567,23.740241 -0.37094,1.112824 -26.33683,-30.046242 -153.56969,-15.950474 -0.74188,0 -43.40012,-37.836009 -66.76942,-40.432598 -1.11283,-0.370941 -22.62742,-4.080354 -25.22401,48.964247 0,1.112824 -44.14201,15.950474 -56.01213,64.914721 -11.87012,48.96425 -11.128238,80.86519 -11.128238,80.86519 0,0 -18.904912,27.6632 -9.798121,25.03308 5.346826,-1.54421 4.975885,23.56023 4.975885,23.56023 l -2.225648,39.31977 c 0,0 -14.466709,35.23942 -14.83765,59.72155 -0.370942,24.48212 -0.741883,34.12659 4.822236,48.5933 5.564119,14.46671 20.772711,46.7386 42.658245,63.06002 8.902591,0.37094 18.918001,1.8547 18.918001,1.8547 l 3.70942,-20.77271 c 0,0 18.918,15.95048 32.27189,14.83765 13.35388,-1.11282 -0.74189,-0.74188 -0.74189,-0.74188 l -13.72482,-17.80518 z"
       id="path2-4"
       sodipodi:nodetypes="ccscccccccsaccccccccscsccsscccsccc"
       inkscape:label="上发层" /><path
       style="fill:none;fill-opacity:1;stroke:#c3b4b0;stroke-width:6.5;stroke-linecap:round;stroke-miterlimit:1.3;stroke-dasharray:none;stroke-opacity:1;paint-order:fill markers stroke"
       d="m 197.5082,220.06557 18.36065,-12.32786"
       id="path46" /><path
       style="fill:none;fill-opacity:1;stroke:#c3b4b0;stroke-width:6.5;stroke-linecap:round;stroke-miterlimit:1.3;stroke-dasharray:none;stroke-opacity:1;paint-order:fill markers stroke"
       d="m 327.54114,234.24941 c 0,0 -6.27192,4.90452 -15.85821,-0.991"
       id="path47"
       sodipodi:nodetypes="cc" /><path
       style="display:inline;fill:none;fill-opacity:1;stroke:#4c4f59;stroke-width:6.5;stroke-linecap:round;stroke-miterlimit:1.3;stroke-dasharray:none;stroke-opacity:1;paint-order:fill markers stroke"
       d="m 322.62295,86.03279 c 0,0 75.43341,26.12055 110.16394,89.18032 33.44261,60.72132 33.04918,62.42623 33.04918,62.42623 0,0 0.52459,8.39345 -19.93443,11.54099 -2.62295,0 14.68852,30.95082 19.93443,37.2459 -14.68853,7.34426 -16.78689,8.91803 -16.78689,8.91803 0,0 6.29508,7.86885 4.72131,15.73771 -17.31147,-0.52459 -22.55738,-1.04918 -22.55738,-1.04918 0,0 -4.19672,17.31147 -15.7377,33.04918 C 410.22951,333.11475 410.22951,320 410.22951,320 c 0,0 -24.13115,36.72131 -72.39344,41.44262 -1.57377,-2.62295 12.59016,-14.16393 17.83606,-28.32787 -11.54098,1.57377 -14.68852,2.09836 -14.68852,2.09836 l 10.4918,-16.78688 c 0,0 11.01639,-24.13115 9.44262,-28.32787 -1.04918,-2.62295 -32,-57.70492 -32,-57.70492 0,0 -24.65573,33.04918 -43.54098,49.83607 -6.81967,-4.19672 -13.63934,-14.68853 -13.63934,-14.68853 l -12.59017,11.54099 c 0,0 -48.43778,-50.76436 -42.0945,-90.18318 -3.14754,12.06557 0.12729,56.60941 -5.6432,62.3799 -5.24591,-2.09836 -16.2623,-14.68853 -14.16394,-40.91803 -0.52459,-0.52459 -29.90164,41.44262 -29.90164,41.44262 0,0 -4.19672,48.78688 16.2623,73.44262 1.57377,2.62295 -1.57377,16.2623 -31.47541,-2.62295 1.04918,-1.57377 -1.04918,9.96721 -1.04918,9.96721 0,0 -46.68853,2.09836 -45.63935,-60.85245 -2.62295,-2.62296 -13.63934,34.09836 -13.63934,34.09836 0,0 -24.13115,-32 -0.52459,-92.85246 11.80328,-30.42623 23.34426,-52.85246 31.93442,-67.67213 8.59017,-14.81968 14.22951,-22.03279 14.22951,-22.03279"
       id="path8-0"
       sodipodi:nodetypes="csccccccccccccccccccccccccccssc"
       inkscape:label="头发部件15 头发底色" /><path
       id="path44-3"
       style="fill:#a88a8f;stroke:#4c4f59;stroke-width:2.8623;stroke-linecap:round;stroke-miterlimit:1.3;paint-order:fill markers stroke"
       d="m 216.29183,255.53888 a 8.8904896,7.4928694 0 0 1 -8.89049,7.49287 8.8904896,7.4928694 0 0 1 -8.89049,-7.49287 8.8904896,7.4928694 0 0 1 8.89049,-7.49287 8.8904896,7.4928694 0 0 1 8.89049,7.49287 z" /><path
       id="path44"
       style="fill:#a88a8f;stroke:#4c4f59;stroke-width:2.8623;stroke-linecap:round;stroke-miterlimit:1.3;paint-order:fill markers stroke"
       d="m 336.16933,270.5473 a 8.8904896,7.4928694 0 0 1 -8.89049,7.49287 8.8904896,7.4928694 0 0 1 -8.89049,-7.49287 8.8904896,7.4928694 0 0 1 8.89049,-7.49287 8.8904896,7.4928694 0 0 1 8.89049,7.49287 z" /><path
       style="opacity:1;fill:none;fill-opacity:0;stroke:#a18f90;stroke-width:10.4;stroke-linecap:round;stroke-miterlimit:1.3;stroke-dasharray:none;stroke-opacity:1;paint-order:fill markers stroke"
       d="m 318.7189,85.461784 c 0,0 50.44801,17.063296 76.78484,43.400126 26.33683,26.33683 32.64283,39.31978 32.64283,39.31978"
       id="path32"
       inkscape:label="上方头发边缘加厚" /><path
       style="fill:none;fill-opacity:1;stroke:#4c4f59;stroke-width:6.5;stroke-linecap:round;stroke-miterlimit:1.3;stroke-dasharray:none;stroke-opacity:1;paint-order:fill markers stroke"
       d="m 186.7541,224.52459 10.4918,1.04918"
       id="path45" /><path
       style="opacity:1;fill:#fcbeb5;fill-opacity:1;stroke:#e99c9b;stroke-width:3.4;stroke-linecap:round;stroke-miterlimit:1.3;stroke-dasharray:none;stroke-opacity:1;paint-order:fill markers stroke"
       d="m 250.94176,349.98308 c 0,0 -13.91029,-8.90259 -10.0154,-16.69235 3.89488,-7.78977 17.80517,-4.4513 17.80517,-4.4513 0,0 12.98295,-1.29829 20.03083,-3.89488 7.04788,-2.59659 9.64447,5.0077 9.64447,5.0077 0,0 4.76461,6.06544 -4.26583,16.50689 -5.93505,6.86241 -21.14364,7.04788 -21.14364,7.04788"
       id="path48"
       sodipodi:nodetypes="cscscsc" /><path
       style="opacity:1;fill:#ffffff;fill-opacity:1;stroke:#e99c9b;stroke-width:1.8;stroke-linecap:round;stroke-miterlimit:1.3;stroke-dasharray:none;stroke-opacity:1;paint-order:fill markers stroke"
       d="m 276.20884,325.76493 c 0,0 4.35031,3.01904 5.37456,7.95235 0.57119,0.10629 3.33355,-3.08729 2.97647,-6.87263 -0.67968,-1.48531 -8.35103,-1.07972 -8.35103,-1.07972 z"
       id="path49" /><path
       style="opacity:1;fill:#ffffff;fill-opacity:1;stroke:#e99c9b;stroke-width:1.8;stroke-linecap:round;stroke-miterlimit:1.3;stroke-dasharray:none;stroke-opacity:1;paint-order:fill markers stroke"
       d="m 245.0067,329.39584 -4.17308,2.78206 -0.0927,6.0278 -0.0956,-0.0355 7.07328,-8.8174 z"
       id="path50"
       sodipodi:nodetypes="cccccc" /><path
       style="fill:none;fill-opacity:1;stroke:#e99c9b;stroke-width:3.4;stroke-linecap:round;stroke-miterlimit:1.3;stroke-dasharray:none;stroke-opacity:1;paint-order:fill markers stroke"
       d="m 250.94176,349.98308 c 0,0 -13.91029,-8.90259 -10.0154,-16.69235 3.89488,-7.78977 17.80517,-4.4513 17.80517,-4.4513 0,0 12.98295,-1.29829 20.03083,-3.89488 7.04788,-2.59659 9.64447,5.0077 9.64447,5.0077 0,0 4.76461,6.06544 -4.26583,16.50689 -5.93505,6.86241 -21.14364,7.04788 -21.14364,7.04788"
       id="path48-2"
       sodipodi:nodetypes="cscscsc" /><path
       style="opacity:1;fill:#ffffff;fill-opacity:1;stroke:#e89493;stroke-width:2.8;stroke-linecap:round;stroke-linejoin:round;stroke-miterlimit:1.3;stroke-dasharray:none;stroke-opacity:1;paint-order:fill markers stroke"
       d="m 190.84928,314.92913 6.12053,15.02312"
       id="path51" /><path
       style="opacity:1;fill:#ffffff;fill-opacity:1;stroke:#e89493;stroke-width:2.8;stroke-linecap:round;stroke-linejoin:round;stroke-miterlimit:1.3;stroke-dasharray:none;stroke-opacity:1;paint-order:fill markers stroke"
       d="m 204.94505,316.96931 5.56412,14.28124"
       id="path52" /><path
       style="opacity:1;fill:#ffffff;fill-opacity:1;stroke:#e89493;stroke-width:2.8;stroke-linecap:round;stroke-linejoin:round;stroke-miterlimit:1.3;stroke-dasharray:none;stroke-opacity:1;paint-order:fill markers stroke"
       d="m 217.92799,317.34025 7.41883,16.50689"
       id="path53" /><path
       style="opacity:1;fill:#ffffff;fill-opacity:1;stroke:#e89493;stroke-width:2.8;stroke-linecap:round;stroke-linejoin:round;stroke-miterlimit:1.3;stroke-dasharray:none;stroke-opacity:1;paint-order:fill markers stroke"
       d="m 300.64789,328.46849 6.86242,18.17612"
       id="path54" /><path
       style="opacity:1;fill:#ffffff;fill-opacity:1;stroke:#e89493;stroke-width:2.8;stroke-linecap:round;stroke-linejoin:round;stroke-miterlimit:1.3;stroke-dasharray:none;stroke-opacity:1;paint-order:fill markers stroke"
       d="m 312.70348,329.21037 6.67695,17.0633"
       id="path55" /><path
       style="opacity:1;fill:#ffffff;fill-opacity:1;stroke:#e89493;stroke-width:2.8;stroke-linecap:round;stroke-linejoin:round;stroke-miterlimit:1.3;stroke-dasharray:none;stroke-opacity:1;paint-order:fill markers stroke"
       d="m 326.24284,328.65396 7.04788,17.99065"
       id="path56" /><path
       style="opacity:1;fill:none;fill-opacity:1;stroke:#e49589;stroke-width:4.6;stroke-linecap:round;stroke-linejoin:round;stroke-miterlimit:1.3;stroke-dasharray:none;stroke-opacity:1;paint-order:fill markers stroke"
       d="m 218.4918,348.98361 c -1.87307,1.30472 -3.33608,3.11401 -4.70333,4.91603 -1.02497,1.35089 -2.00187,2.75003 -2.77208,4.2643"
       id="path61"
       inkscape:path-effect="#path-effect61"
       inkscape:original-d="m 218.4918,348.98361 c -1.70592,0.99645 -5.82749,5.88449 -7.47541,9.18033"
       transform="rotate(-3.3120949,219.55256,344.63259)" /><path
       style="opacity:1;fill:none;fill-opacity:1;stroke:#4c4f59;stroke-width:3.2;stroke-linecap:round;stroke-linejoin:round;stroke-miterlimit:1.3;stroke-dasharray:none;stroke-opacity:1;paint-order:fill markers stroke"
       d="m 127.47541,375.08197 c 0,0 -14.42623,-19.14754 -12.06557,-59.54099"
       id="path92" /><path
       style="opacity:1;fill:#ffffff;fill-opacity:0.734285;stroke:#c1545a;stroke-width:7.8;stroke-linecap:round;stroke-linejoin:round;stroke-miterlimit:1.3;stroke-dasharray:none;stroke-opacity:1;paint-order:fill markers stroke"
       d="m 136.39344,322.09836 c 0,0 9.44263,-18.88525 -4.19672,-39.86885 -3.14754,-0.52459 27.80328,-27.80328 5.2459,-77.11476 -1.57377,0.52459 23.60656,-55.60655 -24.13115,-82.88524 -4.19672,-8.39344 -45.639336,-69.245904 -89.180316,13.11475 0,11.54099 -1.04918,36.19672 -1.04918,36.19672 0,0 -14.6885299,38.81968 -6.29509,71.86886 2.09837,3.14754 -20.9835999,49.83606 11.0164,106.4918 0.52459,0.52459 -16.78689,57.70492 12.59016,82.88525 1.04918,4.72131 13.63935,33.57377 42.49181,39.34426 12.59016,0.52459 19.409826,-0.52459 19.409826,-0.52459 0,0 31.47541,-4.72131 47.73771,-67.14754 -2.09836,-27.80328 -4.19672,-50.36066 -11.0164,-70.81968"
       id="path93" /><path
       id="path101"
       style="opacity:1;fill:#ffffff;fill-opacity:0.734285;stroke:#000000;stroke-width:9;stroke-linecap:round;stroke-linejoin:round;stroke-miterlimit:1.3;stroke-dasharray:none;stroke-opacity:1;paint-order:fill markers stroke"
       d="m 109.69769,219.48859 c 0,0 -15.208592,-11.87012 -21.143652,-19.65989 m -37.09413,20.03083 22.25648,-21.88553 m 0.37094,-14.09577 5.93506,41.91636 m -35.23942,-24.11118 56.012132,-4.82224 m 11.12824,-17.43424 -19.288952,0.37094 m -0.37094,-0.74188 -1.48376,-29.6753 m -38.94883,3.33847 37.836,-2.96753 m -24.85306,-11.49918 0.74188,39.69072"
       inkscape:label="杂" /><path
       id="path111"
       style="opacity:1;fill:#ffffff;fill-opacity:0.734285;stroke:#000000;stroke-width:9;stroke-linecap:round;stroke-linejoin:round;stroke-miterlimit:1.3;stroke-dasharray:none;stroke-opacity:1;paint-order:fill markers stroke"
       d="m 58.507798,352.28556 54.157422,-3.33847 m -46.367662,-13.72483 35.610372,-2.96753 m -21.514602,-32.27189 2.59659,33.38472 m -18.918,-16.32142 37.094122,-3.33847 m 1.48377,18.54706 0.74188,-33.75565 m -0.37094,0.37094 -40.803542,2.22565 m 0,-0.37094 4.4513,33.38471 m 27.44965,-48.22237 3.33847,-14.4667 m 0,-1.48377 -27.44965,1.48377 m -1.48377,14.83765 0.74188,-20.03083"
       inkscape:label="鱼" /><path
       d="m 69.453989,376.46984 c -4.220665,0.22086 -8.079406,1.8518 -10.783191,4.54882 -2.980547,2.98155 -4.241957,7.10139 -3.534076,11.54824 0.904812,5.67433 4.763552,11.7394 11.384623,17.90216 1.405115,1.30393 2.39508,2.14912 4.390984,3.74184 3.507462,2.79468 6.679618,5.01174 11.04931,7.70876 1.559468,0.96838 4.635815,2.76496 5.796096,3.38931 l 0.335314,0.18263 0.48966,-0.26758 c 1.783005,-0.98111 4.960482,-2.86264 6.844609,-4.05189 7.126702,-4.49782 12.832312,-9.01266 17.063632,-13.50625 6.86057,-7.28827 9.77725,-14.38543 8.43068,-20.49298 -0.93142,-4.20475 -4.04502,-7.68327 -8.46261,-9.45012 -1.90011,-0.76026 -3.74699,-1.15525 -5.83869,-1.24869 -2.7091,-0.12316 -5.37562,0.33977 -7.91973,1.37185 -4.332435,1.75413 -7.951675,5.17315 -10.229661,9.66674 -0.159681,0.3143 -0.308701,0.59038 -0.329985,0.60737 -0.0692,0.0553 -0.143707,-0.051 -0.431122,-0.62859 -0.681263,-1.35913 -2.01719,-3.3341 -3.065699,-4.52331 -1.07513,-1.22747 -2.804909,-2.72251 -4.092931,-3.54224 -3.326503,-2.11937 -7.222503,-3.15569 -11.097213,-2.95607 z"
       id="path1-4"
       style="fill:#d96477;fill-opacity:1;stroke:none;stroke-width:0.00475452" /></g></svg>
