<?xml version="1.0" encoding="UTF-8" standalone="no"?>
<!-- Created with Inkscape (http://www.inkscape.org/) -->

<svg
   width="128"
   height="128"
   viewBox="0 0 128 128"
   version="1.1"
   id="svg1"
   inkscape:version="1.4.2 (ebf0e940d0, 2025-05-08)"
   sodipodi:docname="zakomonochrome-128.svg"
   xmlns:inkscape="http://www.inkscape.org/namespaces/inkscape"
   xmlns:sodipodi="http://sodipodi.sourceforge.net/DTD/sodipodi-0.dtd"
   xmlns="http://www.w3.org/2000/svg"
   xmlns:svg="http://www.w3.org/2000/svg">
  <sodipodi:namedview
     id="namedview1"
     pagecolor="#ffffff"
     bordercolor="#999999"
     borderopacity="1"
     inkscape:showpageshadow="2"
     inkscape:pageopacity="0"
     inkscape:pagecheckerboard="0"
     inkscape:deskcolor="#d1d1d1"
     inkscape:document-units="px"
     inkscape:zoom="2.6185048"
     inkscape:cx="59.957881"
     inkscape:cy="71.032903"
     inkscape:window-width="1280"
     inkscape:window-height="696"
     inkscape:window-x="0"
     inkscape:window-y="0"
     inkscape:window-maximized="1"
     inkscape:current-layer="layer1" />
  <defs
     id="defs1" />
  <g
     inkscape:label="图层 1"
     inkscape:groupmode="layer"
     id="layer1">
    <rect
       style="fill:#ffffff;stroke:#000000;stroke-width:0;stroke-linecap:round;stroke-linejoin:round;stroke-miterlimit:1.3;stroke-dasharray:none;paint-order:fill markers stroke;fill-opacity:1"
       id="rect1"
       width="128"
       height="128"
       x="0"
       y="0"
       rx="7.772471"
       ry="7.772471" />
    <path
       id="path101"
       style="fill:#ffffff;fill-opacity:0.734285;stroke:#000000;stroke-width:4.27504;stroke-linecap:round;stroke-linejoin:round;stroke-miterlimit:1.3;stroke-dasharray:none;stroke-opacity:1;paint-order:fill markers stroke"
       d="m 42.510282,81.796052 c 0,0 -7.224141,-5.638356 -10.043315,-9.338525 M 14.847106,81.97224 25.41902,71.576535 m 0.17619,-6.695549 2.819179,19.910444 M 11.675534,73.338532 38.281518,71.047931 M 43.567475,62.7666 34.40515,62.942814 M 34.22896,62.590425 33.524162,48.494537 m -18.500855,1.58577 17.972249,-1.409582 m -11.8053,-5.462154 0.352397,18.853251"
       inkscape:label="杂" />
    <path
       id="path111"
       style="fill:#ffffff;fill-opacity:0.734285;stroke:#000000;stroke-width:3.94824;stroke-linecap:round;stroke-linejoin:round;stroke-miterlimit:1.3;stroke-dasharray:none;stroke-opacity:1;paint-order:fill markers stroke"
       d="M 55.912937,82.876745 79.671596,81.412163 M 59.330273,75.391135 74.952411,74.089291 m -9.43837,-14.157553 1.139102,14.645756 m -8.299247,-7.160159 16.273048,-1.464569 m 0.650926,8.136525 0.325472,-14.808482 m -0.162747,0.162739 -17.900363,0.976379 m 0,-0.162738 1.952774,14.645756 m 12.042061,-21.154974 1.464576,-6.346492 m 0,-0.650928 -12.042063,0.650928 m -0.650918,6.509218 0.325459,-8.787441"
       inkscape:label="鱼" />
    <path
       d="m 95.08569,51.121163 c -1.90515,0.116064 -3.64694,0.97349 -4.86738,2.391307 -1.34538,1.56738 -1.91476,3.733159 -1.59523,6.070852 0.40842,2.982962 2.1502,6.17135 5.13887,9.411078 0.63424,0.68546 1.08109,1.129773 1.98202,1.967071 1.58321,1.469144 3.01507,2.634638 4.9875,4.052454 0.70392,0.50905 2.09253,1.453525 2.61627,1.781734 l 0.15133,0.09594 0.22103,-0.140663 c 0.80481,-0.515755 2.23909,-1.504852 3.08956,-2.130057 3.21689,-2.364488 5.79232,-4.737902 7.70228,-7.100167 3.09676,-3.831409 4.4133,-7.562359 3.80549,-10.773058 -0.42043,-2.210414 -1.82588,-4.039057 -3.81992,-4.967887 -0.85767,-0.399664 -1.69132,-0.607312 -2.6355,-0.656431 -1.22285,-0.0647 -2.42648,0.178619 -3.57485,0.721182 -1.95561,0.922124 -3.58927,2.719503 -4.61752,5.081755 -0.072,0.165235 -0.1394,0.310355 -0.14895,0.319295 -0.0312,0.02902 -0.0648,-0.02679 -0.19458,-0.330457 -0.30752,-0.714476 -0.91055,-1.752718 -1.38382,-2.377871 -0.4853,-0.645282 -1.2661,-1.431214 -1.84749,-1.862143 -1.50155,-1.114153 -3.26013,-1.658924 -5.00914,-1.553996 z"
       id="path1-4"
       style="fill:#000000;fill-opacity:1;stroke:none;stroke-width:0.00231605" />
  </g>
</svg>
